<svg width="117" height="21" viewBox="0 0 117 21" fill="none" xmlns="http://www.w3.org/2000/svg">
<path d="M100.349 10.0554L95.5899 3.75415H101.106L110.841 16.5733H105.271L103.107 13.7058L100.943 16.5733H95.399L100.349 10.0554Z" fill="#1C2024"/>
<path d="M105.149 3.75415H110.64L106.425 9.36695L103.637 5.77021L105.149 3.75415Z" fill="#1C2024"/>
<path d="M24.7232 15.1536C23.3978 14.0276 22.735 12.3632 22.735 10.1649C22.735 7.96652 23.4106 6.3022 24.764 5.1762C26.1152 4.05021 27.9639 3.48615 30.3081 3.48615C31.2819 3.48615 32.1419 3.55263 32.8904 3.6899C33.6389 3.82501 34.3553 4.0545 35.0394 4.3805V7.94722C33.9757 7.4432 32.7682 7.19012 31.417 7.19012C30.2266 7.19012 29.3473 7.41532 28.7811 7.86571C28.2127 8.31611 27.9296 9.08178 27.9296 10.1649C27.9296 11.2115 28.2084 11.9686 28.7682 12.4362C29.3258 12.9059 30.2095 13.1396 31.4191 13.1396C32.6995 13.1396 33.9156 12.8415 35.0695 12.2474V15.9793C33.7891 16.5562 32.1934 16.8436 30.2824 16.8436C27.8996 16.8436 26.0487 16.2795 24.7232 15.1536Z" fill="#1C2024"/>
<path d="M36.2234 10.1627C36.2234 7.98148 36.8454 6.32359 38.0893 5.18687C39.3333 4.05016 41.2078 3.48395 43.715 3.48395C46.2393 3.48395 48.1267 4.0523 49.3814 5.18687C50.6339 6.32144 51.2602 7.98148 51.2602 10.1627C51.2602 14.6152 48.7444 16.8414 43.715 16.8414C38.7199 16.8436 36.2234 14.6173 36.2234 10.1627ZM45.5144 12.4361C45.8833 11.9664 46.0678 11.2093 46.0678 10.1648C46.0678 9.1375 45.8833 8.38469 45.5144 7.90641C45.1455 7.42813 44.545 7.19007 43.715 7.19007C42.9043 7.19007 42.3166 7.43028 41.9563 7.90641C41.596 8.38469 41.4158 9.1375 41.4158 10.1648C41.4158 11.2115 41.596 11.9686 41.9563 12.4361C42.3166 12.9058 42.9021 13.1396 43.715 13.1396C44.545 13.1396 45.1434 12.9037 45.5144 12.4361Z" fill="#1C2024"/>
<path d="M52.444 3.75419H57.2032L57.3383 4.7279C57.8617 4.36758 58.5287 4.06946 59.3394 3.83569C60.1501 3.60191 60.9887 3.48395 61.8552 3.48395C63.4594 3.48395 64.6305 3.88073 65.3704 4.67428C66.1104 5.46784 66.4792 6.69249 66.4792 8.35252V16.5733H61.3962V8.86511C61.3962 8.28818 61.2654 7.87424 61.0037 7.62116C60.7421 7.36808 60.3045 7.24369 59.6911 7.24369C59.3137 7.24369 58.9254 7.32948 58.5287 7.50106C58.1319 7.67264 57.7995 7.89354 57.5271 8.16378V16.5733H52.444V3.75419Z" fill="#1C2024"/>
<path d="M66.4943 3.75415H71.7939L74.2282 11.2715L76.6625 3.75415H81.9622L76.9049 16.5733H71.5494L66.4943 3.75415Z" fill="#1C2024"/>
<path d="M83.5622 15.4709C82.0351 14.3256 81.321 12.3375 81.321 10.1906C81.321 8.09944 81.8893 6.37721 83.1869 5.18688C84.4844 3.99654 86.4619 3.48395 88.9584 3.48395C91.2554 3.48395 93.0613 4.01584 94.3803 5.07964C95.6972 6.14343 96.3578 7.59542 96.3578 9.43347V11.679H86.6914C86.9316 12.346 87.2362 12.8286 87.9847 13.1267C88.7332 13.4248 89.7777 13.5728 91.1139 13.5728C91.9117 13.5728 92.7267 13.5106 93.5546 13.3841C93.8463 13.3391 94.3267 13.2683 94.5798 13.2147V16.331C93.3165 16.6741 91.6329 16.8457 89.7348 16.8457C87.1804 16.8436 85.0893 16.6162 83.5622 15.4709ZM91.0173 8.92088C91.0173 8.28603 90.286 6.91983 88.8168 6.91983C87.4914 6.91983 86.6163 8.26458 86.6163 8.92088H91.0173Z" fill="#1C2024"/>
<path d="M11.9234 15.4752C14.733 15.1685 17.3818 13.6972 18.8402 11.2415C18.1496 17.3154 11.3915 21.1545 5.87521 18.7974C5.36691 18.5808 4.92938 18.2205 4.62912 17.7572C3.38945 15.8441 2.98195 13.4098 3.56747 11.2007C5.24037 14.0382 8.64193 15.7776 11.9234 15.4752Z" fill="#1C2024"/>
<path d="M3.46457 9.41846C2.32571 12.005 2.27638 15.0334 3.67261 17.5256C-1.241 13.8924 -1.18738 6.11769 3.61256 2.52095C4.05652 2.18852 4.58413 1.9912 5.13747 1.96118C7.41304 1.84322 9.72508 2.70755 11.3465 4.31825C8.05218 4.35042 4.84364 6.42439 3.46457 9.41846Z" fill="#1C2024"/>
<path d="M12.9358 5.11396C11.2736 2.83624 8.67202 1.28559 5.82166 1.2384C11.3315 -1.21947 18.1089 2.76546 18.8467 8.65708C18.9153 9.20399 18.8252 9.76162 18.5786 10.2549C17.5491 12.3096 15.6403 13.9031 13.4098 14.4929C15.0441 11.5139 14.8425 7.87424 12.9358 5.11396Z" fill="#1C2024"/>
</svg>
