<svg width="101" height="20" viewBox="0 0 101 20" fill="none" xmlns="http://www.w3.org/2000/svg">
<g clip-path="url(#clip0_47_6617)">
<mask id="mask0_47_6617" style="mask-type:luminance" maskUnits="userSpaceOnUse" x="0" y="1" width="81" height="16">
<path d="M80.1308 1H0.333344V17H80.1308V1Z" fill="white"/>
</mask>
<g mask="url(#mask0_47_6617)">
<path d="M53.3802 1.00668H67.2796V3.57214H61.7659V17.0686H59.0088V3.57214H53.3802V1.00668Z" fill="#1C2024"/>
<path d="M30.5211 1.00668V3.57214H19.3798V7.69917H28.3396V10.2646H19.3798V14.5032H30.5211V17.0686H16.623V3.57214H16.6218V1.00668H30.5211Z" fill="#1C2024"/>
<path d="M37.4614 1.01343H33.8535L46.7763 17.0754H50.3947L43.9325 9.04993L50.3844 1.02568L46.7763 1.03126L42.1262 6.80655L37.4614 1.01343Z" fill="#1C2024"/>
<path d="M41.1637 12.4865L39.3569 10.2401L33.8432 17.0876H37.4614L41.1637 12.4865Z" fill="#1C2024"/>
<path fill-rule="evenodd" clip-rule="evenodd" d="M16.7196 17.0687L3.77944 1H0.333344V17.062H3.09022V4.43323L13.2562 17.0687H16.7196Z" fill="#1C2024"/>
<path d="M67.8993 16.9705C67.6974 16.9705 67.5256 16.9006 67.3819 16.7607C67.2381 16.6208 67.167 16.4515 67.1688 16.2508C67.167 16.0557 67.2381 15.8882 67.3819 15.7483C67.5256 15.6084 67.6974 15.5385 67.8993 15.5385C68.0935 15.5385 68.2635 15.6084 68.4073 15.7483C68.5531 15.8882 68.6258 16.0557 68.6278 16.2508C68.6258 16.3834 68.5922 16.5048 68.5249 16.6134C68.4559 16.7239 68.3682 16.8104 68.2578 16.873C68.1494 16.9374 68.03 16.9705 67.8993 16.9705Z" fill="#1C2024"/>
<path d="M72.6047 10.2041H73.8264V14.9108C73.8246 15.3434 73.731 15.7134 73.5481 16.0245C73.3632 16.3355 73.1072 16.573 72.7785 16.7405C72.4516 16.9061 72.0686 16.9908 71.6334 16.9908C71.2354 16.9908 70.8788 16.919 70.5612 16.7791C70.2436 16.6393 69.9915 16.4294 69.8066 16.1533C69.6196 15.8772 69.5281 15.533 69.5281 15.1207H70.7518C70.7536 15.3011 70.7947 15.4575 70.8731 15.5882C70.9515 15.7189 71.0598 15.8183 71.1982 15.8882C71.3381 15.9582 71.4989 15.9932 71.68 15.9932C71.8762 15.9932 72.0443 15.9526 72.1806 15.8698C72.3169 15.7888 72.4217 15.6673 72.4946 15.5054C72.5655 15.3452 72.6029 15.1464 72.6047 14.9108V10.2041Z" fill="#1C2024"/>
<path d="M78.8531 12.0448C78.8233 11.7595 78.6924 11.5368 78.4646 11.3785C78.2347 11.2184 77.9378 11.1392 77.5735 11.1392C77.3177 11.1392 77.0973 11.1779 76.9142 11.2534C76.7311 11.3307 76.5891 11.4337 76.4919 11.5644C76.3949 11.6951 76.3463 11.8442 76.3425 12.0117C76.3425 12.1516 76.3761 12.2731 76.4415 12.3743C76.5069 12.4774 76.5946 12.5639 76.7086 12.6339C76.8206 12.7057 76.9458 12.7646 77.0823 12.8124C77.2204 12.8603 77.3588 12.9008 77.4969 12.9339L78.1339 13.0904C78.3899 13.1493 78.6384 13.2284 78.8755 13.3297C79.1127 13.4291 79.3276 13.5561 79.5161 13.7088C79.7049 13.8616 79.8544 14.0457 79.9645 14.2611C80.0747 14.4764 80.1308 14.7286 80.1308 15.0194C80.1308 15.4115 80.03 15.7557 79.8262 16.0539C79.6227 16.3502 79.3294 16.5822 78.9446 16.7497C78.5616 16.9154 78.0984 17 77.553 17C77.0262 17 76.5667 16.9191 76.18 16.7571C75.7916 16.5969 75.4888 16.3613 75.2703 16.0521C75.0517 15.7428 74.9341 15.3655 74.9173 14.9219H76.1278C76.1446 15.1538 76.2193 15.3471 76.3463 15.5035C76.4751 15.6582 76.6432 15.7723 76.8488 15.8496C77.0562 15.9251 77.2877 15.9637 77.5437 15.9637C77.8108 15.9637 78.0462 15.9232 78.2497 15.8441C78.4514 15.7649 78.6102 15.6545 78.7242 15.5109C78.8401 15.3692 78.898 15.2017 78.8998 15.0102C78.898 14.8354 78.8456 14.6899 78.7447 14.5758C78.642 14.4617 78.5 14.366 78.3188 14.2887C78.1359 14.2114 77.9228 14.1414 77.68 14.0807L76.9067 13.8856C76.3481 13.7438 75.9054 13.5285 75.5822 13.2395C75.2573 12.9505 75.0965 12.5676 75.0965 12.0872C75.0965 11.6933 75.2048 11.3472 75.4236 11.0509C75.6401 10.7545 75.9372 10.5244 76.3127 10.3606C76.69 10.195 77.1159 10.114 77.5903 10.114C78.0723 10.114 78.4944 10.195 78.8587 10.3606C79.2229 10.5244 79.5088 10.7527 79.716 11.0435C79.9234 11.3343 80.0318 11.6675 80.0375 12.0448H78.8531Z" fill="#1C2024"/>
</g>
</g>
<defs>
<clipPath id="clip0_47_6617">
<rect width="99.7468" height="20" fill="white" transform="translate(0.333344)"/>
</clipPath>
</defs>
</svg>
