<svg width="106" height="22" viewBox="0 0 106 22" fill="none" xmlns="http://www.w3.org/2000/svg">
<path fill-rule="evenodd" clip-rule="evenodd" d="M53.5371 11.3671C53.5371 7.60743 51.716 4.6408 48.2354 4.6408C44.7401 4.6408 42.6252 7.60743 42.6252 11.3377C42.6252 15.7583 45.1219 17.9906 48.7054 17.9906C50.453 17.9906 51.7748 17.5941 52.7734 17.036V14.0988C51.7748 14.5981 50.6293 14.9065 49.1753 14.9065C47.7507 14.9065 46.4877 14.4072 46.3262 12.6742H53.5078C53.5078 12.4833 53.5371 11.7196 53.5371 11.3671ZM46.2821 9.97192C46.2821 8.31237 47.2955 7.62211 48.2207 7.62211C49.1166 7.62211 50.0712 8.31237 50.0712 9.97192H46.2821Z" fill="#1C2024"/>
<path fill-rule="evenodd" clip-rule="evenodd" d="M36.9564 4.6408C35.5171 4.6408 34.5919 5.31637 34.0778 5.78633L33.8869 4.87578H30.6559V22L34.3275 21.2216L34.3422 17.0654C34.8709 17.4472 35.6493 17.9906 36.9417 17.9906C39.5705 17.9906 41.9644 15.8758 41.9644 11.2202C41.9497 6.96123 39.5265 4.6408 36.9564 4.6408ZM36.0752 14.7596C35.2087 14.7596 34.6947 14.4512 34.3422 14.0694L34.3275 8.62078C34.7094 8.19488 35.2381 7.90115 36.0752 7.90115C37.4116 7.90115 38.3369 9.39915 38.3369 11.3231C38.3369 13.291 37.4263 14.7596 36.0752 14.7596Z" fill="#1C2024"/>
<path fill-rule="evenodd" clip-rule="evenodd" d="M25.6039 3.77434L29.2902 2.98128V-3.05176e-05L25.6039 0.778342V3.77434Z" fill="#1C2024"/>
<path d="M29.2902 4.8905H25.6039V17.741H29.2902V4.8905Z" fill="#1C2024"/>
<path fill-rule="evenodd" clip-rule="evenodd" d="M21.6532 5.97728L21.4183 4.8905H18.246V17.741H21.9176V9.03203C22.7841 7.90118 24.2527 8.10679 24.708 8.26834V4.8905C24.238 4.71426 22.5197 4.39117 21.6532 5.97728Z" fill="#1C2024"/>
<path fill-rule="evenodd" clip-rule="evenodd" d="M14.3101 1.70355L10.7267 2.46724L10.712 14.2309C10.712 16.4045 12.3422 18.0053 14.5157 18.0053C15.72 18.0053 16.6012 17.785 17.0858 17.5207V14.5393C16.6159 14.7303 14.2954 15.4058 14.2954 13.2323V8.01865H17.0858V4.89047H14.2954L14.3101 1.70355Z" fill="#1C2024"/>
<path fill-rule="evenodd" clip-rule="evenodd" d="M4.38225 8.62078C4.38225 8.04801 4.85221 7.82772 5.63058 7.82772C6.74674 7.82772 8.15662 8.1655 9.27278 8.76764V5.31637C8.05382 4.83172 6.84954 4.6408 5.63058 4.6408C2.64927 4.6408 0.666626 6.19754 0.666626 8.79701C0.666626 12.8504 6.24741 12.2042 6.24741 13.9519C6.24741 14.6275 5.65996 14.8478 4.83752 14.8478C3.61857 14.8478 2.06182 14.3484 0.828175 13.6729V17.1682C2.194 17.7556 3.57451 18.0053 4.83752 18.0053C7.89227 18.0053 9.9924 16.4926 9.9924 13.8638C9.97772 9.48727 4.38225 10.2656 4.38225 8.62078Z" fill="#1C2024"/>
</svg>
