<svg width="106" height="21" viewBox="0 0 106 21" fill="none" xmlns="http://www.w3.org/2000/svg">
<path d="M96.9157 12.4232H93.9778C93.9778 15.3597 96.336 17.312 99.6986 17.312C103.003 17.312 105.245 15.5727 105.245 13.0001C105.245 9.91799 103.085 9.46659 100.37 8.89933C100.225 8.86908 100.078 8.8384 99.9305 8.80708C97.9593 8.40116 97.3214 7.97658 97.3214 6.87511C97.3214 5.83157 98.2302 5.11692 99.6986 5.11692C101.148 5.11692 102.133 5.90966 102.133 7.18513H105.071C105.071 4.55739 103.022 2.8183 99.6986 2.8183C96.5098 2.8183 94.4227 4.67346 94.4227 7.1272C94.4227 10.0652 96.7996 10.8189 99.0418 11.2636C101.497 11.7463 102.27 12.0566 102.27 13.2348C102.27 14.2786 101.264 15.0134 99.7955 15.0134C98.0564 15.0134 96.9157 14.0857 96.9157 12.4232Z" fill="#1C2024"/>
<path fill-rule="evenodd" clip-rule="evenodd" d="M79.4653 10.1168C79.4653 5.76861 82.1713 2.86969 86.2297 2.86969C90.288 2.86969 92.9938 5.76861 92.9938 10.1168C92.9938 14.4649 90.288 17.3636 86.2297 17.3636C82.1713 17.3636 79.4653 14.4649 79.4653 10.1168ZM90.1908 10.1168C90.1908 7.15993 88.6066 5.16853 86.2282 5.16853C83.8497 5.16853 82.267 7.15993 82.267 10.1168C82.267 13.0734 83.8512 15.065 86.2282 15.065C88.6051 15.065 90.1908 13.0734 90.1908 10.1168Z" fill="#1C2024"/>
<path d="M33.6647 3.01108H30.766L34.5155 17.1193H37.8388L39.9261 8.57678C40.3507 6.7214 40.3898 5.8909 40.3898 5.8909H40.429C40.429 5.8909 40.4681 6.7214 40.9319 8.57678L43.1537 17.1193H46.3815L50.0528 3.01086H47.1541L45.1438 11.6117C44.7583 13.2929 44.7193 14.2017 44.7193 14.2017H44.6611C44.6611 14.2017 44.5641 13.2929 44.1582 11.6117L42.0523 3.01108H38.7665L36.7766 11.6117C36.3896 13.2551 36.2546 14.2017 36.2546 14.2017H36.2156C36.2156 14.2017 36.1388 13.235 35.7517 11.6117L33.6647 3.01108Z" fill="#1C2024"/>
<path fill-rule="evenodd" clip-rule="evenodd" d="M54.807 6.67938C51.6562 6.67938 49.5689 8.76647 49.5689 11.9943C49.5689 15.2408 51.6575 17.3467 54.807 17.3482C57.9379 17.3482 60.025 15.2408 60.025 11.9943C60.025 8.76647 57.9379 6.67938 54.807 6.67938ZM54.807 8.7272C56.3144 8.7272 57.3189 9.9072 57.3189 11.9943C57.3189 13.9842 56.4305 15.2989 54.807 15.2989C53.2795 15.2989 52.275 14.1204 52.275 11.9943C52.275 10.0419 53.1838 8.7272 54.807 8.7272Z" fill="#1C2024"/>
<path d="M61.3191 6.83756H63.8889V8.73198H63.9468C64.3918 7.74637 65.4542 6.76075 67.2703 6.76075C67.579 6.76075 67.7732 6.7998 67.9081 6.83756V9.40737H67.8313C67.8313 9.40737 67.5994 9.33056 66.9616 9.33056C64.9717 9.33056 63.8889 10.5088 63.8889 12.7118V17.1181H61.3191V6.83756ZM71.6764 3.01117H69.1066V17.1181H71.6764V13.8135L72.6431 12.8669L76.3927 17.1194H79.4276L74.2288 11.2827L78.7102 6.83735H75.5028L71.6764 10.6826H71.6373C71.6373 10.6826 71.6764 10.1999 71.6764 7.53311V3.01117Z" fill="#1C2024"/>
<path d="M0.333344 9.99989C0.333344 10.4384 0.448768 10.8769 0.671894 11.2539L4.71819 18.2618C5.13334 18.9771 5.76409 19.5617 6.54868 19.8232C8.0949 20.3386 9.69497 19.6771 10.4566 18.354L11.4334 16.6617L7.57957 10.0001L12.6256 1.2538C12.9181 0.746184 13.3105 0.330827 13.7719 0H7.49482C6.39485 0 5.37942 0.584632 4.8334 1.53828L0.671894 8.74653C0.448768 9.12305 0.333344 9.56158 0.333344 9.99989Z" fill="#1C2024"/>
<path d="M23.4103 9.99988C23.4103 9.56156 23.2951 9.12303 23.0719 8.74608L18.9718 1.64618C18.2104 0.330809 16.6103 -0.330844 15.0641 0.176767C14.2795 0.43851 13.6487 1.02314 13.2334 1.73843L12.3102 3.33078L16.1641 10.0001L11.118 18.7462C10.8285 19.2402 10.438 19.6674 9.97189 20H16.2488C17.3488 20 18.3642 19.4156 18.9104 18.4617L23.0719 11.2539C23.2951 10.8769 23.4103 10.4384 23.4103 9.99988Z" fill="#1C2024"/>
</svg>
