<svg width="91" height="21" viewBox="0 0 91 21" fill="none" xmlns="http://www.w3.org/2000/svg">
<path d="M2.80972 17.3583H0L6.18611 0.830556H9.42083L15.5833 17.3583H12.6792L11.1208 13.2735H4.34445L2.80972 17.3583ZM7.72083 3.75833L5.1 10.9597H10.3653L7.72083 3.75833ZM24.8909 11.3139V5.26944H27.4409V17.3583H25.1979L24.9146 15.8235C24.159 16.7444 23.0492 17.5 21.184 17.5C18.6103 17.5 16.4146 16.1306 16.4146 11.9985V5.26944H18.9646V11.7152C18.9646 14.0763 19.909 15.2806 21.7742 15.2806C23.7103 15.2806 24.8909 13.8167 24.8909 11.3139ZM29.7649 14.0763V1.89306H32.3149V5.26944H35.2427V7.5125H32.3149V13.8167C32.3149 14.7611 32.6691 15.1152 33.5663 15.1152H35.5024V17.3583H33.0469C30.733 17.3583 29.7649 16.2722 29.7649 14.0763ZM43.4761 5.12778C46.1678 5.12778 48.3637 6.59167 48.3637 10.6291V17.3583H45.8137V10.8417C45.8137 8.55139 44.7984 7.32361 42.9095 7.32361C40.9026 7.32361 39.6748 8.81111 39.6748 11.243V17.3583H37.1248V0.830556H39.6748V7.01667C40.4304 5.97778 41.5873 5.12778 43.4761 5.12778ZM50.9424 17.3583V0.830556H53.6578V9.35417L61.2369 0.830556H64.5424L58.4744 7.77222L64.9911 17.3583H61.7091L56.5147 9.77917L53.6578 12.9902V17.3583H50.9424ZM67.5222 3.56944C66.6487 3.56944 65.9639 2.93194 65.9639 2.03472C65.9639 1.1375 66.6487 0.5 67.5222 0.5C68.3959 0.5 69.0806 1.1375 69.0806 2.03472C69.0806 2.93194 68.3959 3.56944 67.5222 3.56944ZM66.2237 17.3583V5.26944H68.7737V17.3583H66.2237ZM71.0843 14.0763V1.89306H73.6343V5.26944H76.5621V7.5125H73.6343V13.8167C73.6343 14.7611 73.9886 15.1152 74.8858 15.1152H76.8219V17.3583H74.3663C72.0525 17.3583 71.0843 16.2722 71.0843 14.0763Z" fill="#3E63DD"/>
</svg>
