<svg width="117" height="21" viewBox="0 0 117 21" fill="none" xmlns="http://www.w3.org/2000/svg">
<path d="M100.349 10.0554L95.5899 3.75415H101.106L110.841 16.5733H105.271L103.107 13.7058L100.943 16.5733H95.399L100.349 10.0554Z" fill="#3E63DD"/>
<path d="M105.149 3.75415H110.64L106.425 9.36695L103.637 5.77021L105.149 3.75415Z" fill="#3E63DD"/>
<path d="M24.7232 15.1535C23.3978 14.0275 22.735 12.3632 22.735 10.1648C22.735 7.96646 23.4106 6.30213 24.764 5.17614C26.1152 4.05015 27.9639 3.48608 30.3081 3.48608C31.2819 3.48608 32.1419 3.55257 32.8904 3.68983C33.6389 3.82495 34.3553 4.05444 35.0394 4.38044V7.94715C33.9757 7.44314 32.7682 7.19006 31.417 7.19006C30.2266 7.19006 29.3473 7.41526 28.7811 7.86565C28.2127 8.31605 27.9296 9.08172 27.9296 10.1648C27.9296 11.2115 28.2084 11.9686 28.7682 12.4361C29.3258 12.9058 30.2095 13.1396 31.4191 13.1396C32.6995 13.1396 33.9156 12.8415 35.0695 12.2474V15.9792C33.7891 16.5562 32.1934 16.8436 30.2824 16.8436C27.8996 16.8436 26.0487 16.2795 24.7232 15.1535Z" fill="#3E63DD"/>
<path d="M36.2234 10.1626C36.2234 7.98142 36.8454 6.32353 38.0893 5.18681C39.3333 4.0501 41.2078 3.48389 43.715 3.48389C46.2393 3.48389 48.1267 4.05224 49.3814 5.18681C50.6339 6.32138 51.2602 7.98142 51.2602 10.1626C51.2602 14.6151 48.7444 16.8414 43.715 16.8414C38.7199 16.8435 36.2234 14.6173 36.2234 10.1626ZM45.5144 12.4361C45.8833 11.9664 46.0678 11.2093 46.0678 10.1648C46.0678 9.13743 45.8833 8.38463 45.5144 7.90635C45.1455 7.42807 44.545 7.19001 43.715 7.19001C42.9043 7.19001 42.3166 7.43022 41.9563 7.90635C41.596 8.38463 41.4158 9.13743 41.4158 10.1648C41.4158 11.2114 41.596 11.9685 41.9563 12.4361C42.3166 12.9058 42.9021 13.1395 43.715 13.1395C44.545 13.1395 45.1434 12.9036 45.5144 12.4361Z" fill="#3E63DD"/>
<path d="M52.444 3.75412H57.2032L57.3383 4.72784C57.8617 4.36752 58.5287 4.0694 59.3394 3.83562C60.1501 3.60185 60.9887 3.48389 61.8552 3.48389C63.4594 3.48389 64.6305 3.88066 65.3704 4.67422C66.1104 5.46778 66.4792 6.69243 66.4792 8.35246V16.5733H61.3962V8.86505C61.3962 8.28812 61.2654 7.87418 61.0037 7.6211C60.7421 7.36802 60.3045 7.24362 59.6911 7.24362C59.3137 7.24362 58.9254 7.32941 58.5287 7.50099C58.1319 7.67257 57.7995 7.89348 57.5271 8.16372V16.5733H52.444V3.75412Z" fill="#3E63DD"/>
<path d="M66.4943 3.75415H71.7939L74.2282 11.2715L76.6625 3.75415H81.9622L76.9049 16.5733H71.5494L66.4943 3.75415Z" fill="#3E63DD"/>
<path d="M83.5622 15.4709C82.0351 14.3256 81.321 12.3374 81.321 10.1905C81.321 8.09938 81.8893 6.37715 83.1869 5.18681C84.4844 3.99648 86.4619 3.48389 88.9584 3.48389C91.2554 3.48389 93.0613 4.01578 94.3803 5.07958C95.6972 6.14337 96.3578 7.59536 96.3578 9.43341V11.679H86.6914C86.9316 12.346 87.2362 12.8285 87.9847 13.1267C88.7332 13.4248 89.7777 13.5728 91.1139 13.5728C91.9117 13.5728 92.7267 13.5106 93.5546 13.384C93.8463 13.339 94.3267 13.2682 94.5798 13.2146V16.3309C93.3165 16.6741 91.6329 16.8456 89.7348 16.8456C87.1804 16.8435 85.0893 16.6162 83.5622 15.4709ZM91.0173 8.92081C91.0173 8.28597 90.286 6.91977 88.8168 6.91977C87.4914 6.91977 86.6163 8.26452 86.6163 8.92081H91.0173Z" fill="#3E63DD"/>
<path d="M11.9234 15.4752C14.733 15.1685 17.3818 13.6972 18.8402 11.2414C18.1496 17.3154 11.3915 21.1544 5.87521 18.7974C5.36691 18.5808 4.92938 18.2204 4.62912 17.7572C3.38945 15.8441 2.98195 13.4098 3.56747 11.2007C5.24037 14.0382 8.64193 15.7776 11.9234 15.4752Z" fill="#3E63DD"/>
<path d="M3.46457 9.41852C2.32571 12.0051 2.27638 15.0335 3.67261 17.5257C-1.241 13.8925 -1.18738 6.11775 3.61256 2.52102C4.05652 2.18858 4.58413 1.99126 5.13747 1.96124C7.41304 1.84328 9.72508 2.70761 11.3465 4.31831C8.05218 4.35048 4.84364 6.42445 3.46457 9.41852Z" fill="#3E63DD"/>
<path d="M12.9358 5.11396C11.2736 2.83624 8.67202 1.28559 5.82166 1.2384C11.3315 -1.21947 18.1089 2.76546 18.8467 8.65708C18.9153 9.20399 18.8252 9.76162 18.5786 10.2549C17.5491 12.3096 15.6403 13.9031 13.4098 14.4929C15.0441 11.5139 14.8425 7.87424 12.9358 5.11396Z" fill="#3E63DD"/>
</svg>
