<svg width="24" height="24" viewBox="0 0 24 24" fill="none" xmlns="http://www.w3.org/2000/svg">
<path fill-rule="evenodd" clip-rule="evenodd" d="M11.9988 0.399994C5.59406 0.399994 0.399902 5.59348 0.399902 12.0004C0.399902 17.1248 3.72334 21.473 8.33286 23.0075C8.91325 23.1136 9.12473 22.7555 9.12473 22.4478C9.12473 22.1722 9.11477 21.443 9.10907 20.4752C5.88248 21.176 5.20169 18.92 5.20169 18.92C4.67401 17.5798 3.91349 17.223 3.91349 17.223C2.86027 16.5038 3.99325 16.5181 3.99325 16.5181C5.15755 16.6 5.76997 17.7138 5.76997 17.7138C6.80467 19.4861 8.48526 18.9741 9.14611 18.6771C9.2515 17.928 9.55129 17.4166 9.88243 17.1269C7.3067 16.8334 4.59854 15.8387 4.59854 11.3937C4.59854 10.1268 5.05073 9.09211 5.79275 8.281C5.67312 7.98761 5.27505 6.80833 5.90669 5.21105C5.90669 5.21105 6.88014 4.89913 9.09625 6.39956C10.0213 6.14249 11.014 6.01431 12.0003 6.00932C12.9858 6.01431 13.9778 6.14249 14.9043 6.39956C17.1189 4.89913 18.0909 5.21105 18.0909 5.21105C18.7241 6.80833 18.326 7.98761 18.2071 8.281C18.9505 9.09211 19.3991 10.1268 19.3991 11.3937C19.3991 15.8501 16.6866 16.8307 14.1031 17.1176C14.519 17.4758 14.89 18.1837 14.89 19.2661C14.89 20.8163 14.8758 22.0675 14.8758 22.4478C14.8758 22.7582 15.0851 23.1194 15.6734 23.0061C20.2793 21.4686 23.5999 17.124 23.5999 12.0004C23.5999 5.59348 18.4057 0.399994 11.9988 0.399994Z" fill="#8B8D98"/>
</svg>
