<svg width="101" height="20" viewBox="0 0 101 20" fill="none" xmlns="http://www.w3.org/2000/svg">
<g clip-path="url(#clip0_104_7154)">
<mask id="mask0_104_7154" style="mask-type:luminance" maskUnits="userSpaceOnUse" x="0" y="1" width="81" height="16">
<path d="M80.1308 1H0.333344V17H80.1308V1Z" fill="white"/>
</mask>
<g mask="url(#mask0_104_7154)">
<path d="M53.3802 1.00671H67.2796V3.57217H61.7659V17.0687H59.0088V3.57217H53.3802V1.00671Z" fill="#3E63DD"/>
<path d="M30.5211 1.00671V3.57217H19.3798V7.6992H28.3396V10.2646H19.3798V14.5032H30.5211V17.0687H16.623V3.57217H16.6218V1.00671H30.5211Z" fill="#3E63DD"/>
<path d="M37.4614 1.01343H33.8535L46.7763 17.0754H50.3947L43.9325 9.04993L50.3844 1.02568L46.7763 1.03126L42.1262 6.80655L37.4614 1.01343Z" fill="#3E63DD"/>
<path d="M41.1637 12.4866L39.3569 10.2401L33.8432 17.0876H37.4614L41.1637 12.4866Z" fill="#3E63DD"/>
<path fill-rule="evenodd" clip-rule="evenodd" d="M16.7196 17.0687L3.77944 1H0.333344V17.062H3.09022V4.43323L13.2562 17.0687H16.7196Z" fill="#3E63DD"/>
<path d="M67.8993 16.9705C67.6974 16.9705 67.5256 16.9006 67.3819 16.7607C67.2381 16.6208 67.167 16.4514 67.1688 16.2508C67.167 16.0557 67.2381 15.8882 67.3819 15.7483C67.5256 15.6084 67.6974 15.5385 67.8993 15.5385C68.0935 15.5385 68.2635 15.6084 68.4073 15.7483C68.5531 15.8882 68.6258 16.0557 68.6278 16.2508C68.6258 16.3833 68.5922 16.5048 68.5249 16.6134C68.4559 16.7239 68.3682 16.8104 68.2578 16.873C68.1494 16.9374 68.03 16.9705 67.8993 16.9705Z" fill="#3E63DD"/>
<path d="M72.6047 10.2041H73.8264V14.9108C73.8246 15.3434 73.731 15.7133 73.5481 16.0244C73.3632 16.3355 73.1072 16.5729 72.7785 16.7404C72.4516 16.9061 72.0686 16.9908 71.6334 16.9908C71.2354 16.9908 70.8788 16.919 70.5612 16.7791C70.2436 16.6392 69.9915 16.4294 69.8066 16.1533C69.6196 15.8772 69.5281 15.533 69.5281 15.1206H70.7518C70.7536 15.301 70.7947 15.4575 70.8731 15.5882C70.9515 15.7189 71.0598 15.8182 71.1982 15.8882C71.3381 15.9581 71.4989 15.9931 71.68 15.9931C71.8762 15.9931 72.0443 15.9526 72.1806 15.8698C72.3169 15.7888 72.4217 15.6673 72.4946 15.5053C72.5655 15.3452 72.6029 15.1464 72.6047 14.9108V10.2041Z" fill="#3E63DD"/>
<path d="M78.8531 12.0448C78.8233 11.7595 78.6924 11.5368 78.4646 11.3785C78.2347 11.2183 77.9378 11.1392 77.5735 11.1392C77.3177 11.1392 77.0973 11.1778 76.9142 11.2533C76.7311 11.3306 76.5891 11.4337 76.4919 11.5644C76.3949 11.6951 76.3463 11.8442 76.3425 12.0117C76.3425 12.1516 76.3761 12.273 76.4415 12.3743C76.5069 12.4774 76.5946 12.5639 76.7086 12.6338C76.8206 12.7056 76.9458 12.7645 77.0823 12.8124C77.2204 12.8602 77.3588 12.9007 77.4969 12.9339L78.1339 13.0903C78.3899 13.1492 78.6384 13.2284 78.8755 13.3296C79.1127 13.429 79.3276 13.556 79.5161 13.7088C79.7049 13.8616 79.8544 14.0456 79.9645 14.261C80.0747 14.4764 80.1308 14.7285 80.1308 15.0194C80.1308 15.4114 80.03 15.7557 79.8262 16.0538C79.6227 16.3502 79.3294 16.5821 78.9446 16.7496C78.5616 16.9153 78.0984 17 77.553 17C77.0262 17 76.5667 16.919 76.18 16.757C75.7916 16.5969 75.4888 16.3612 75.2703 16.052C75.0517 15.7428 74.9341 15.3654 74.9173 14.9218H76.1278C76.1446 15.1537 76.2193 15.347 76.3463 15.5035C76.4751 15.6581 76.6432 15.7722 76.8488 15.8495C77.0562 15.925 77.2877 15.9637 77.5437 15.9637C77.8108 15.9637 78.0462 15.9231 78.2497 15.844C78.4514 15.7648 78.6102 15.6544 78.7242 15.5109C78.8401 15.3691 78.898 15.2016 78.8998 15.0102C78.898 14.8353 78.8456 14.6899 78.7447 14.5757C78.642 14.4616 78.5 14.3659 78.3188 14.2886C78.1359 14.2113 77.9228 14.1414 77.68 14.0806L76.9067 13.8855C76.3481 13.7438 75.9054 13.5284 75.5822 13.2394C75.2573 12.9504 75.0965 12.5676 75.0965 12.0871C75.0965 11.6932 75.2048 11.3472 75.4236 11.0508C75.6401 10.7545 75.9372 10.5244 76.3127 10.3606C76.69 10.1949 77.1159 10.1139 77.5903 10.1139C78.0723 10.1139 78.4944 10.1949 78.8587 10.3606C79.2229 10.5244 79.5088 10.7526 79.716 11.0435C79.9234 11.3343 80.0318 11.6675 80.0375 12.0448H78.8531Z" fill="#3E63DD"/>
</g>
</g>
<defs>
<clipPath id="clip0_104_7154">
<rect width="99.7468" height="20" fill="white" transform="translate(0.333344)"/>
</clipPath>
</defs>
</svg>
