<svg width="68" height="21" viewBox="0 0 68 21" fill="none" xmlns="http://www.w3.org/2000/svg">
<path d="M38.8424 17.3966H41.0578C40.8968 16.5543 40.8144 15.7531 40.8144 14.7876V10.7611C40.8144 8.0494 39.266 6.71409 36.4877 6.71409C33.9712 6.71409 32.26 8.02885 32.0385 10.268H34.5148C34.5954 9.30256 35.2798 8.66569 36.4072 8.66569C37.5749 8.66569 38.3399 9.28195 38.3399 10.5557V11.0487L35.2798 11.3979C33.2062 11.6445 31.5956 12.5073 31.5956 14.6026C31.5956 16.4926 33.0451 17.6225 35.0382 17.6225C36.6689 17.6225 38.0444 16.9446 38.6145 15.7531C38.6395 16.4669 38.8424 17.3966 38.8424 17.3966ZM35.7428 15.7942C34.7162 15.7942 34.1524 15.2806 34.1524 14.4589C34.1524 13.3701 34.9778 13.1236 36.065 12.9798L38.3399 12.7127V13.3495C38.3399 14.993 37.0716 15.7942 35.7428 15.7942ZM49.5873 17.3966H52.124V2.60864H49.547V8.66569C49.0639 7.61799 47.8962 6.71409 46.3058 6.71409C43.5412 6.71409 41.6222 8.95325 41.6222 12.1786C41.6222 15.4244 43.5412 17.6431 46.3058 17.6431C47.856 17.6431 49.084 16.7802 49.5873 15.7326V17.3966ZM49.6075 12.3634C49.6075 14.3973 48.6612 15.712 47.0305 15.712C45.3595 15.712 44.3062 14.3356 44.3062 12.1786C44.3062 10.0421 45.3595 8.64515 47.0305 8.64515C48.6612 8.64515 49.6075 9.95995 49.6075 11.9937V12.3634ZM53.6288 5.19389H56.3668V2.626H53.6288V5.19389ZM53.7094 17.3966H56.2863V6.96061H53.7094V17.3966ZM59.5047 17.3966L62.0615 13.822L64.5981 17.3966H67.5575L63.5915 11.932L67.2355 6.96061H64.4773L62.2023 10.1859L59.9475 6.96061H56.9881L60.6723 12.0553L56.7465 17.3966H59.5047Z" fill="#3E63DD"/>
<path fill-rule="evenodd" clip-rule="evenodd" d="M22.3303 17.3913V12.1885H25.7089L28.8851 17.3913H31.7106L28.2226 11.7987C29.801 11.2921 31.1845 10.006 31.1845 7.84309C31.1845 4.99812 29.1878 3.47821 25.8467 3.47821H19.7971V17.3913H22.3303ZM22.3303 5.52424V10.1619H25.7284C27.6575 10.1619 28.6318 9.36299 28.6318 7.84309C28.6318 6.32317 27.5705 5.52424 25.5545 5.52424H22.3303Z" fill="#3E63DD"/>
<path d="M6.75358 20C3.39185 20 0.666626 17.0802 0.666626 13.4783C0.666626 9.87637 3.39185 6.95654 6.75358 6.95654V20Z" fill="#3E63DD"/>
<path d="M6.75358 0H0.666626V6.08696H6.75358V0Z" fill="#3E63DD"/>
<path d="M10.6666 6.08696C12.3475 6.08696 13.7101 4.72435 13.7101 3.04348C13.7101 1.36261 12.3475 0 10.6666 0C8.98581 0 7.62317 1.36261 7.62317 3.04348C7.62317 4.72435 8.98581 6.08696 10.6666 6.08696Z" fill="#3E63DD"/>
</svg>
