<svg width="106" height="22" viewBox="0 0 106 22" fill="none" xmlns="http://www.w3.org/2000/svg">
<path fill-rule="evenodd" clip-rule="evenodd" d="M53.5371 11.3672C53.5371 7.6075 51.716 4.64087 48.2354 4.64087C44.7401 4.64087 42.6252 7.60749 42.6252 11.3378C42.6252 15.7584 45.1219 17.9907 48.7054 17.9907C50.453 17.9907 51.7748 17.5942 52.7734 17.0361V14.0988C51.7748 14.5982 50.6293 14.9066 49.1753 14.9066C47.7507 14.9066 46.4877 14.4072 46.3262 12.6743H53.5078C53.5078 12.4833 53.5371 11.7197 53.5371 11.3672ZM46.2821 9.97198C46.2821 8.31244 47.2955 7.62218 48.2207 7.62218C49.1166 7.62218 50.0712 8.31244 50.0712 9.97198H46.2821Z" fill="#3E63DD"/>
<path fill-rule="evenodd" clip-rule="evenodd" d="M36.9564 4.64087C35.5171 4.64087 34.5919 5.31644 34.0778 5.7864L33.8869 4.87585H30.6559V22L34.3275 21.2217L34.3422 17.0654C34.8709 17.4473 35.6493 17.9907 36.9417 17.9907C39.5705 17.9907 41.9644 15.8759 41.9644 11.2203C41.9497 6.9613 39.5265 4.64087 36.9564 4.64087ZM36.0752 14.7597C35.2087 14.7597 34.6947 14.4513 34.3422 14.0695L34.3275 8.62085C34.7094 8.19495 35.2381 7.90122 36.0752 7.90122C37.4116 7.90122 38.3369 9.39922 38.3369 11.3231C38.3369 13.2911 37.4263 14.7597 36.0752 14.7597Z" fill="#3E63DD"/>
<path fill-rule="evenodd" clip-rule="evenodd" d="M25.6039 3.77437L29.2902 2.98131V0L25.6039 0.778372V3.77437Z" fill="#3E63DD"/>
<path d="M29.2902 4.8905H25.6039V17.741H29.2902V4.8905Z" fill="#3E63DD"/>
<path fill-rule="evenodd" clip-rule="evenodd" d="M21.6532 5.97724L21.4183 4.89045H18.246V17.7409H21.9176V9.03198C22.7841 7.90114 24.2527 8.10675 24.708 8.26829V4.89045C24.238 4.71422 22.5197 4.39112 21.6532 5.97724Z" fill="#3E63DD"/>
<path fill-rule="evenodd" clip-rule="evenodd" d="M14.3101 1.70361L10.7267 2.4673L10.712 14.231C10.712 16.4046 12.3422 18.0054 14.5157 18.0054C15.72 18.0054 16.6012 17.7851 17.0858 17.5207V14.5394C16.6159 14.7303 14.2954 15.4059 14.2954 13.2323V8.01871H17.0858V4.89053H14.2954L14.3101 1.70361Z" fill="#3E63DD"/>
<path fill-rule="evenodd" clip-rule="evenodd" d="M4.38225 8.62085C4.38225 8.04808 4.85221 7.82779 5.63058 7.82779C6.74674 7.82779 8.15662 8.16557 9.27278 8.76771V5.31644C8.05382 4.83179 6.84954 4.64087 5.63058 4.64087C2.64927 4.64087 0.666626 6.19761 0.666626 8.79708C0.666626 12.8505 6.24741 12.2043 6.24741 13.952C6.24741 14.6275 5.65996 14.8478 4.83752 14.8478C3.61857 14.8478 2.06182 14.3485 0.828175 13.6729V17.1683C2.194 17.7557 3.57451 18.0054 4.83752 18.0054C7.89227 18.0054 9.9924 16.4927 9.9924 13.8638C9.97772 9.48734 4.38225 10.2657 4.38225 8.62085Z" fill="#3E63DD"/>
</svg>
