<svg width="144" height="26" viewBox="0 0 144 26" fill="none" xmlns="http://www.w3.org/2000/svg">
<path d="M40.7557 8.77841C40.6989 8.15341 40.446 7.66761 39.9972 7.32102C39.554 6.96875 38.9205 6.79261 38.0966 6.79261C37.5511 6.79261 37.0966 6.86364 36.733 7.00568C36.3693 7.14773 36.0966 7.34375 35.9148 7.59375C35.733 7.83807 35.6392 8.11932 35.6335 8.4375C35.6222 8.69886 35.6733 8.92898 35.7869 9.12784C35.9063 9.3267 36.0767 9.50284 36.2983 9.65625C36.5256 9.80398 36.7983 9.93466 37.1165 10.0483C37.4347 10.1619 37.7926 10.2614 38.1903 10.3466L39.6903 10.6875C40.554 10.875 41.3153 11.125 41.9744 11.4375C42.6392 11.75 43.196 12.1222 43.6449 12.554C44.0994 12.9858 44.4432 13.483 44.6761 14.0455C44.9091 14.608 45.0284 15.2386 45.0341 15.9375C45.0284 17.0398 44.75 17.9858 44.1989 18.7756C43.6477 19.5653 42.8551 20.1705 41.821 20.5909C40.7926 21.0114 39.5511 21.2216 38.0966 21.2216C36.6364 21.2216 35.3636 21.0028 34.2784 20.5653C33.1932 20.1278 32.3494 19.4631 31.7472 18.571C31.1449 17.679 30.8352 16.5511 30.8182 15.1875H34.858C34.892 15.75 35.0426 16.2188 35.3097 16.5938C35.5767 16.9688 35.9432 17.2528 36.4091 17.446C36.8807 17.6392 37.4261 17.7358 38.0455 17.7358C38.6136 17.7358 39.0966 17.6591 39.4943 17.5057C39.8977 17.3523 40.2074 17.1392 40.4233 16.8665C40.6392 16.5937 40.75 16.2812 40.7557 15.929C40.75 15.5994 40.6477 15.3182 40.4489 15.0852C40.25 14.8466 39.9432 14.642 39.5284 14.4716C39.1193 14.2955 38.5966 14.1335 37.9602 13.9858L36.1364 13.5597C34.625 13.2131 33.4347 12.6534 32.5653 11.8807C31.696 11.1023 31.2642 10.0511 31.2699 8.72727C31.2642 7.64773 31.554 6.7017 32.1392 5.8892C32.7244 5.0767 33.5341 4.44318 34.5682 3.98864C35.6023 3.53409 36.7813 3.30682 38.1051 3.30682C39.4574 3.30682 40.6307 3.53693 41.625 3.99716C42.625 4.4517 43.4006 5.09091 43.9517 5.91477C44.5028 6.73864 44.7841 7.69318 44.7955 8.77841H40.7557ZM54.6508 15.3494V7.90909H58.8099V21H54.8383V18.5625H54.7019C54.4122 19.3636 53.9178 20 53.219 20.4716C52.5258 20.9375 51.6877 21.1705 50.7048 21.1705C49.8127 21.1705 49.0286 20.9659 48.3525 20.5568C47.6764 20.1477 47.1508 19.5767 46.7758 18.8438C46.4008 18.1051 46.2105 17.2415 46.2048 16.2528V7.90909H50.3724V15.4347C50.3781 16.1449 50.5656 16.7045 50.9349 17.1136C51.3042 17.5227 51.807 17.7273 52.4434 17.7273C52.8582 17.7273 53.2303 17.6364 53.5599 17.4545C53.8951 17.267 54.1593 16.9972 54.3525 16.6449C54.5514 16.2869 54.6508 15.8551 54.6508 15.3494ZM60.5026 25.9091V7.90909H64.6276V10.1506H64.7554C64.9259 9.75284 65.1674 9.36932 65.4799 9C65.798 8.63068 66.2014 8.32955 66.6901 8.09659C67.1844 7.85795 67.7753 7.73864 68.4628 7.73864C69.3719 7.73864 70.2213 7.97727 71.0111 8.45454C71.8066 8.93182 72.4486 9.66761 72.9372 10.6619C73.4259 11.6562 73.6702 12.9233 73.6702 14.4631C73.6702 15.946 73.4344 17.1875 72.9628 18.1875C72.4969 19.1875 71.8662 19.9375 71.0708 20.4375C70.281 20.9375 69.4032 21.1875 68.4372 21.1875C67.7782 21.1875 67.2071 21.0795 66.7242 20.8636C66.2412 20.6477 65.835 20.3636 65.5054 20.0114C65.1816 19.6591 64.9316 19.2812 64.7554 18.8778H64.6702V25.9091H60.5026ZM64.585 14.4545C64.585 15.1591 64.6787 15.7727 64.8662 16.2955C65.0594 16.8182 65.335 17.2244 65.6929 17.5142C66.0566 17.7983 66.4912 17.9403 66.9969 17.9403C67.5083 17.9403 67.9429 17.7983 68.3009 17.5142C68.6588 17.2244 68.9287 16.8182 69.1105 16.2955C69.298 15.7727 69.3918 15.1591 69.3918 14.4545C69.3918 13.75 69.298 13.1392 69.1105 12.6222C68.9287 12.1051 68.6588 11.7045 68.3009 11.4205C67.9486 11.1364 67.5139 10.9943 66.9969 10.9943C66.4855 10.9943 66.0509 11.1335 65.6929 11.4119C65.335 11.6903 65.0594 12.0881 64.8662 12.6051C64.6787 13.1222 64.585 13.7386 64.585 14.4545ZM81.0135 21.2472C79.6441 21.2472 78.4623 20.9773 77.468 20.4375C76.4794 19.892 75.718 19.1165 75.1839 18.1108C74.6555 17.0994 74.3913 15.8977 74.3913 14.5057C74.3913 13.1534 74.6584 11.9716 75.1924 10.9602C75.7265 9.94318 76.4794 9.15341 77.451 8.59091C78.4226 8.02273 79.5674 7.73864 80.8856 7.73864C81.8174 7.73864 82.6697 7.88352 83.4424 8.17329C84.2152 8.46307 84.8828 8.89205 85.4453 9.46023C86.0078 10.0284 86.4453 10.7301 86.7578 11.5653C87.0703 12.3949 87.2265 13.3466 87.2265 14.4205V15.4602H75.8487V13.0398H83.3487C83.343 12.5966 83.2379 12.2017 83.0334 11.8551C82.8288 11.5085 82.5476 11.2386 82.1896 11.0455C81.8373 10.8466 81.4311 10.7472 80.9709 10.7472C80.5049 10.7472 80.0873 10.8523 79.718 11.0625C79.3487 11.267 79.0561 11.5483 78.8402 11.9062C78.6243 12.2585 78.5106 12.6591 78.4993 13.108V15.571C78.4993 16.1051 78.6044 16.5739 78.8146 16.9773C79.0248 17.375 79.3231 17.6847 79.7095 17.9062C80.0959 18.1278 80.5561 18.2386 81.0902 18.2386C81.4595 18.2386 81.7947 18.1875 82.0959 18.0852C82.397 17.983 82.6555 17.8324 82.8714 17.6335C83.0873 17.4347 83.2493 17.1903 83.3572 16.9006L87.1839 17.0114C87.0248 17.8693 86.6754 18.6165 86.1356 19.2528C85.6015 19.8835 84.8998 20.375 84.0305 20.7273C83.1612 21.0739 82.1555 21.2472 81.0135 21.2472ZM88.3951 21V7.90909H92.4434V10.2955H92.5797C92.8184 9.43182 93.2076 8.78977 93.7474 8.36932C94.2871 7.94318 94.915 7.73011 95.6309 7.73011C95.8241 7.73011 96.0229 7.74432 96.2275 7.77273C96.432 7.79545 96.6224 7.83239 96.7985 7.88352V11.5057C96.5996 11.4375 96.3383 11.3835 96.0144 11.3438C95.6962 11.304 95.4121 11.2841 95.1621 11.2841C94.6678 11.2841 94.2218 11.3949 93.8241 11.6165C93.432 11.8324 93.1224 12.1364 92.8951 12.5284C92.6735 12.9148 92.5627 13.3693 92.5627 13.892V21H88.3951ZM100.351 21H95.8172L101.706 3.54545H107.323L113.212 21H108.678L104.579 7.94318H104.442L100.351 21ZM99.7462 14.1307H109.223V17.3352H99.7462V14.1307ZM114.131 25.9091V7.90909H118.256V10.1506H118.384C118.555 9.75284 118.796 9.36932 119.109 9C119.427 8.63068 119.83 8.32955 120.319 8.09659C120.813 7.85795 121.404 7.73864 122.092 7.73864C123.001 7.73864 123.85 7.97727 124.64 8.45454C125.435 8.93182 126.077 9.66761 126.566 10.6619C127.055 11.6562 127.299 12.9233 127.299 14.4631C127.299 15.946 127.063 17.1875 126.592 18.1875C126.126 19.1875 125.495 19.9375 124.7 20.4375C123.91 20.9375 123.032 21.1875 122.066 21.1875C121.407 21.1875 120.836 21.0795 120.353 20.8636C119.87 20.6477 119.464 20.3636 119.134 20.0114C118.81 19.6591 118.56 19.2812 118.384 18.8778H118.299V25.9091H114.131ZM118.214 14.4545C118.214 15.1591 118.307 15.7727 118.495 16.2955C118.688 16.8182 118.964 17.2244 119.322 17.5142C119.685 17.7983 120.12 17.9403 120.626 17.9403C121.137 17.9403 121.572 17.7983 121.93 17.5142C122.288 17.2244 122.557 16.8182 122.739 16.2955C122.927 15.7727 123.021 15.1591 123.021 14.4545C123.021 13.75 122.927 13.1392 122.739 12.6222C122.557 12.1051 122.288 11.7045 121.93 11.4205C121.577 11.1364 121.143 10.9943 120.626 10.9943C120.114 10.9943 119.68 11.1335 119.322 11.4119C118.964 11.6903 118.688 12.0881 118.495 12.6051C118.307 13.1222 118.214 13.7386 118.214 14.4545ZM128.523 25.9091V7.90909H132.648V10.1506H132.776C132.946 9.75284 133.188 9.36932 133.5 9C133.818 8.63068 134.222 8.32955 134.71 8.09659C135.205 7.85795 135.796 7.73864 136.483 7.73864C137.392 7.73864 138.242 7.97727 139.031 8.45454C139.827 8.93182 140.469 9.66761 140.958 10.6619C141.446 11.6562 141.691 12.9233 141.691 14.4631C141.691 15.946 141.455 17.1875 140.983 18.1875C140.517 19.1875 139.887 19.9375 139.091 20.4375C138.301 20.9375 137.423 21.1875 136.458 21.1875C135.798 21.1875 135.227 21.0795 134.744 20.8636C134.262 20.6477 133.855 20.3636 133.526 20.0114C133.202 19.6591 132.952 19.2812 132.776 18.8778H132.691V25.9091H128.523ZM132.605 14.4545C132.605 15.1591 132.699 15.7727 132.887 16.2955C133.08 16.8182 133.355 17.2244 133.713 17.5142C134.077 17.7983 134.512 17.9403 135.017 17.9403C135.529 17.9403 135.963 17.7983 136.321 17.5142C136.679 17.2244 136.949 16.8182 137.131 16.2955C137.318 15.7727 137.412 15.1591 137.412 14.4545C137.412 13.75 137.318 13.1392 137.131 12.6222C136.949 12.1051 136.679 11.7045 136.321 11.4205C135.969 11.1364 135.534 10.9943 135.017 10.9943C134.506 10.9943 134.071 11.1335 133.713 11.4119C133.355 11.6903 133.08 12.0881 132.887 12.6051C132.699 13.1222 132.605 13.7386 132.605 14.4545Z" fill="#1C2024"/>
<circle cx="11.9979" cy="12.1365" r="11.2489" stroke="#3E63DD" stroke-width="1.50215"/>
<path d="M16.4859 16.6192C14.221 18.8841 11.6529 20.3651 9.36134 20.9543C7.0509 21.5484 5.16945 21.2112 4.04874 20.0905C2.92803 18.9698 2.59078 17.0883 3.18489 14.7779C3.77414 12.4863 5.25514 9.91818 7.51999 7.65333C9.78484 5.38849 12.353 3.90748 14.6445 3.31823C16.955 2.72412 18.8364 3.06137 19.9571 4.18208C21.0778 5.30279 21.4151 7.18425 20.821 9.49468C20.2317 11.7862 18.7507 14.3544 16.4859 16.6192Z" stroke="#3E63DD" stroke-width="1.50215"/>
<path d="M16.484 7.65329C18.7488 9.91814 20.2298 12.4863 20.8191 14.7778C21.4132 17.0883 21.0759 18.9697 19.9552 20.0904C18.8345 21.2111 16.953 21.5484 14.6426 20.9543C12.3511 20.365 9.78293 18.884 7.51808 16.6192C5.25323 14.3543 3.77223 11.7862 3.18298 9.49464C2.58886 7.1842 2.92612 5.30275 4.04683 4.18204C5.16754 3.06133 7.04899 2.72408 9.35943 3.31819C11.651 3.90744 14.2191 5.38844 16.484 7.65329Z" stroke="#3E63DD" stroke-width="1.50215"/>
</svg>
