<svg width="106" height="21" viewBox="0 0 106 21" fill="none" xmlns="http://www.w3.org/2000/svg">
<path d="M96.9157 12.4233H93.9778C93.9778 15.3597 96.336 17.3121 99.6986 17.3121C103.003 17.3121 105.245 15.5728 105.245 13.0002C105.245 9.91805 103.085 9.46665 100.37 8.89939C100.225 8.86914 100.078 8.83846 99.9305 8.80714C97.9593 8.40122 97.3214 7.97664 97.3214 6.87517C97.3214 5.83163 98.2302 5.11698 99.6986 5.11698C101.148 5.11698 102.133 5.90972 102.133 7.18519H105.071C105.071 4.55745 103.022 2.81836 99.6986 2.81836C96.5098 2.81836 94.4227 4.67352 94.4227 7.12726C94.4227 10.0652 96.7996 10.8189 99.0418 11.2637C101.497 11.7464 102.27 12.0566 102.27 13.2349C102.27 14.2787 101.264 15.0135 99.7955 15.0135C98.0564 15.0135 96.9157 14.0858 96.9157 12.4233Z" fill="#3E63DD"/>
<path fill-rule="evenodd" clip-rule="evenodd" d="M79.4653 10.1167C79.4653 5.76855 82.1713 2.86963 86.2297 2.86963C90.288 2.86963 92.9938 5.76855 92.9938 10.1167C92.9938 14.4649 90.288 17.3636 86.2297 17.3636C82.1713 17.3636 79.4653 14.4649 79.4653 10.1167ZM90.1908 10.1167C90.1908 7.15986 88.6066 5.16847 86.2282 5.16847C83.8497 5.16847 82.267 7.15986 82.267 10.1167C82.267 13.0733 83.8512 15.065 86.2282 15.065C88.6051 15.065 90.1908 13.0733 90.1908 10.1167Z" fill="#3E63DD"/>
<path d="M33.6647 3.01108H30.766L34.5155 17.1193H37.8388L39.9261 8.57678C40.3507 6.7214 40.3898 5.8909 40.3898 5.8909H40.429C40.429 5.8909 40.4681 6.7214 40.9319 8.57678L43.1537 17.1193H46.3815L50.0528 3.01086H47.1541L45.1438 11.6117C44.7583 13.2929 44.7193 14.2017 44.7193 14.2017H44.6611C44.6611 14.2017 44.5641 13.2929 44.1582 11.6117L42.0523 3.01108H38.7665L36.7766 11.6117C36.3896 13.2551 36.2546 14.2017 36.2546 14.2017H36.2156C36.2156 14.2017 36.1388 13.235 35.7517 11.6117L33.6647 3.01108Z" fill="#3E63DD"/>
<path fill-rule="evenodd" clip-rule="evenodd" d="M54.807 6.67944C51.6562 6.67944 49.5689 8.76653 49.5689 11.9943C49.5689 15.2408 51.6575 17.3468 54.807 17.3483C57.9379 17.3483 60.025 15.2408 60.025 11.9943C60.025 8.76653 57.9379 6.67944 54.807 6.67944ZM54.807 8.72727C56.3144 8.72727 57.3189 9.90726 57.3189 11.9943C57.3189 13.9842 56.4305 15.299 54.807 15.299C53.2795 15.299 52.275 14.1205 52.275 11.9943C52.275 10.042 53.1838 8.72727 54.807 8.72727Z" fill="#3E63DD"/>
<path d="M61.3191 6.83762H63.8889V8.73204H63.9468C64.3918 7.74643 65.4542 6.76082 67.2703 6.76082C67.579 6.76082 67.7732 6.79986 67.9081 6.83762V9.40743H67.8313C67.8313 9.40743 67.5994 9.33062 66.9616 9.33062C64.9717 9.33062 63.8889 10.5089 63.8889 12.7118V17.1181H61.3191V6.83762ZM71.6764 3.01123H69.1066V17.1181H71.6764V13.8135L72.6431 12.867L76.3927 17.1194H79.4276L74.2288 11.2828L78.7102 6.83741H75.5028L71.6764 10.6827H71.6373C71.6373 10.6827 71.6764 10.2 71.6764 7.53317V3.01123Z" fill="#3E63DD"/>
<path d="M0.333344 9.99989C0.333344 10.4384 0.448768 10.8769 0.671894 11.2539L4.71819 18.2618C5.13334 18.9771 5.76409 19.5617 6.54868 19.8232C8.0949 20.3386 9.69497 19.6771 10.4566 18.354L11.4334 16.6617L7.57957 10.0001L12.6256 1.2538C12.9181 0.746184 13.3105 0.330827 13.7719 0H7.49482C6.39485 0 5.37942 0.584632 4.8334 1.53828L0.671894 8.74653C0.448768 9.12305 0.333344 9.56158 0.333344 9.99989Z" fill="#3E63DD"/>
<path d="M23.4103 9.99994C23.4103 9.56162 23.2951 9.1231 23.0719 8.74614L18.9718 1.64624C18.2104 0.33087 16.6103 -0.330783 15.0641 0.176828C14.2795 0.438571 13.6487 1.0232 13.2334 1.73849L12.3102 3.33084L16.1641 10.0002L11.118 18.7463C10.8285 19.2402 10.438 19.6675 9.97189 20H16.2488C17.3488 20 18.3642 19.4156 18.9104 18.4618L23.0719 11.2539C23.2951 10.877 23.4103 10.4385 23.4103 9.99994Z" fill="#3E63DD"/>
</svg>
